<svg width="717" height="291" viewBox="0 0 717 291" fill="none" xmlns="http://www.w3.org/2000/svg">
<path d="M36.3992 46.9773C79.9029 38.189 116.189 31.2768 147.952 26.2391M147.952 26.2391C202.574 17.5755 243.816 14.4557 285.373 16.8711C285.589 16.8836 285.652 16.5757 285.441 16.5264C240.833 6.11359 173.22 -2.65259 156.509 10.9984C154.369 12.7467 151.477 18.1133 147.952 26.2391ZM147.952 26.2391C134.751 56.6713 112.676 125.804 88.0035 188.505M88.0035 188.505C78.2841 213.205 68.1614 236.907 58.019 256.852C48.0733 276.41 25.2287 292.951 9.97954 278.437C-14.3362 255.294 40.2766 215.902 88.0035 188.505ZM88.0035 188.505C105.602 178.403 122.264 169.932 133.688 164.507M198.857 39.375V287M225.429 251.625V280.367C225.429 284.03 228.403 287 232.071 287H314" stroke="white" stroke-width="7" stroke-linecap="round"/>
<path fill-rule="evenodd" clip-rule="evenodd" d="M360.8 153H362C362.529 153 362.849 153.21 362.958 153.63C362.988 153.751 363.002 153.875 363 154V222C363 222.529 362.79 222.849 362.37 222.958C362.249 222.988 362.125 223.002 362 223H361C360.471 223 360.152 222.79 360.043 222.37C360.013 222.249 359.999 222.125 360 222V159.2C360.001 159.16 359.998 159.12 359.991 159.081C359.968 158.953 359.904 158.876 359.8 158.85C359.671 158.818 359.574 158.895 359.507 159.08C359.505 159.087 359.502 159.093 359.5 159.1L340.1 189.4C339.767 189.867 339.367 190.1 338.9 190.1H338.3C337.964 190.1 337.641 189.971 337.397 189.739C337.286 189.637 337.187 189.523 337.1 189.4L317.5 159.3C317.491 159.271 317.479 159.243 317.466 159.215C317.401 159.084 317.314 159.045 317.203 159.099L317.2 159.1C317.076 159.162 317.01 159.282 317.001 159.459C317 159.473 317 159.486 317 159.5V222C317 222.529 316.79 222.849 316.37 222.958C316.249 222.988 316.125 223.002 316 223H315C314.471 223 314.152 222.79 314.043 222.37C314.013 222.249 313.999 222.125 314 222V154C314 153.471 314.21 153.152 314.63 153.043C314.751 153.013 314.875 152.999 315 153H316.2C316.536 153 316.86 153.13 317.103 153.362C317.214 153.464 317.313 153.577 317.4 153.7L338.3 186C338.355 186.055 338.433 186.088 338.534 186.097C338.556 186.099 338.578 186.1 338.6 186.1C338.689 186.1 338.764 186.085 338.823 186.055C338.852 186.041 338.878 186.022 338.9 186L359.6 153.7C359.933 153.233 360.333 153 360.8 153ZM433.9 222V154C433.9 153.471 434.11 153.152 434.53 153.043C434.651 153.013 434.775 152.999 434.9 153H435.9C436.429 153 436.749 153.21 436.858 153.63C436.888 153.751 436.902 153.875 436.9 154V198.9C436.9 199.033 436.95 199.133 437.05 199.2C437.15 199.267 437.267 199.233 437.4 199.1L462.9 173.4C463.053 173.242 463.236 173.116 463.438 173.03C463.641 172.944 463.858 172.9 464.078 172.9C464.085 172.9 464.093 172.9 464.1 172.9H465.6C465.694 172.9 465.787 172.905 465.88 172.917C466.083 172.944 466.236 173.003 466.338 173.095C466.386 173.138 466.425 173.191 466.45 173.25C466.539 173.457 466.457 173.704 466.204 173.99C466.171 174.028 466.136 174.064 466.1 174.1L453.5 186.9C453.459 186.94 453.426 186.988 453.402 187.04C453.365 187.122 453.357 187.214 453.377 187.315C453.383 187.344 453.391 187.372 453.4 187.4L468.8 221.8L468.9 222.2C468.9 222.733 468.6 223 468 223H466.9C466.463 223 466.139 222.821 465.926 222.464C465.876 222.38 465.834 222.292 465.8 222.2L451.4 189.6C451.382 189.563 451.358 189.528 451.33 189.497C451.301 189.465 451.265 189.44 451.226 189.424C451.186 189.407 451.143 189.399 451.1 189.4C451.011 189.4 450.936 189.415 450.877 189.445C450.849 189.459 450.823 189.478 450.8 189.5L437.1 203.3C437.037 203.363 436.986 203.438 436.952 203.521C436.917 203.603 436.9 203.692 436.9 203.781C436.9 203.787 436.9 203.794 436.9 203.8V222C436.9 222.529 436.69 222.849 436.27 222.958C436.149 222.988 436.025 223.002 435.9 223H434.9C434.371 223 434.052 222.79 433.943 222.37C433.913 222.249 433.899 222.125 433.9 222ZM416.4 188.7V222C416.4 222.529 416.19 222.849 415.77 222.958C415.649 222.988 415.525 223.002 415.4 223H414.4C413.871 223 413.552 222.79 413.443 222.37C413.413 222.249 413.399 222.125 413.4 222V216.8C413.4 216.667 413.35 216.567 413.25 216.5C413.15 216.433 413.033 216.467 412.9 216.6C411.512 218.525 409.692 220.099 407.587 221.196C407.07 221.472 406.54 221.723 406 221.95C403.471 223.001 400.78 223.611 398.045 223.753C397.497 223.785 396.949 223.8 396.4 223.8C394.529 223.813 392.662 223.598 390.843 223.159C388.694 222.639 386.661 221.72 384.85 220.45C382.549 218.828 380.972 216.371 380.455 213.603C380.211 212.418 380.092 211.21 380.1 210C380.078 208.179 380.383 206.368 381 204.654C381.905 202.255 383.486 200.17 385.55 198.65C387.36 197.3 389.4 196.291 391.571 195.671C393.29 195.159 395.177 194.815 397.232 194.639C398.352 194.545 399.476 194.498 400.6 194.5H413C413.053 194.501 413.107 194.494 413.158 194.48C413.277 194.446 413.352 194.369 413.383 194.248C413.395 194.2 413.401 194.15 413.4 194.1V188.5C413.4 184.367 412.267 181.067 410 178.6C408.174 176.613 405.504 175.426 401.991 175.04C401.097 174.944 400.199 174.898 399.3 174.9C397.931 174.892 396.563 175.01 395.215 175.251C393.627 175.545 392.191 176.023 390.908 176.685C390.599 176.845 390.296 177.016 390 177.2C388.961 177.831 388.041 178.638 387.28 179.586C386.383 180.73 385.773 182.072 385.5 183.5C385.313 184.123 384.952 184.397 384.415 184.321C384.376 184.316 384.338 184.309 384.3 184.3L383.3 184.1C382.633 183.967 382.333 183.667 382.4 183.2C383.001 180.158 384.743 177.461 387.27 175.664C387.509 175.486 387.752 175.315 388 175.15C389.853 173.942 391.916 173.092 394.082 172.644C395.751 172.281 397.557 172.1 399.5 172.1C403.351 172.1 406.539 172.785 409.066 174.155C410.232 174.781 411.29 175.59 412.2 176.55C413.973 178.456 415.214 180.795 415.797 183.332C416.174 184.863 416.374 186.532 416.398 188.337C416.4 188.458 416.4 188.579 416.4 188.7ZM615.4 188.7V222C615.4 222.529 615.19 222.849 614.77 222.958C614.649 222.988 614.525 223.002 614.4 223H613.4C612.871 223 612.552 222.79 612.443 222.37C612.413 222.249 612.399 222.125 612.4 222V216.8C612.4 216.667 612.35 216.567 612.25 216.5C612.15 216.433 612.033 216.467 611.9 216.6C610.512 218.525 608.692 220.099 606.587 221.196C606.07 221.472 605.54 221.723 605 221.95C602.471 223.001 599.78 223.611 597.045 223.753C596.497 223.785 595.949 223.8 595.4 223.8C593.529 223.813 591.662 223.598 589.843 223.159C587.694 222.639 585.661 221.72 583.85 220.45C581.549 218.828 579.972 216.371 579.455 213.603C579.211 212.418 579.092 211.21 579.1 210C579.078 208.179 579.383 206.368 580 204.654C580.905 202.255 582.486 200.17 584.55 198.65C586.36 197.3 588.4 196.291 590.571 195.671C592.29 195.159 594.177 194.815 596.232 194.639C597.352 194.545 598.476 194.498 599.6 194.5H612C612.053 194.501 612.107 194.494 612.158 194.48C612.277 194.446 612.352 194.369 612.383 194.248C612.395 194.2 612.401 194.15 612.4 194.1V188.5C612.4 184.367 611.267 181.067 609 178.6C607.174 176.613 604.504 175.426 600.991 175.04C600.097 174.944 599.199 174.898 598.3 174.9C596.931 174.892 595.563 175.01 594.215 175.251C592.627 175.545 591.191 176.023 589.908 176.685C589.599 176.845 589.296 177.016 589 177.2C587.961 177.831 587.041 178.638 586.28 179.586C585.383 180.73 584.773 182.072 584.5 183.5C584.313 184.123 583.952 184.397 583.415 184.321C583.377 184.316 583.338 184.309 583.3 184.3L582.3 184.1C581.633 183.967 581.333 183.667 581.4 183.2C582.001 180.158 583.743 177.461 586.27 175.664C586.509 175.486 586.752 175.315 587 175.15C588.853 173.942 590.916 173.092 593.082 172.644C594.751 172.281 596.557 172.1 598.5 172.1C602.351 172.1 605.539 172.785 608.066 174.155C609.232 174.781 610.29 175.59 611.2 176.55C612.973 178.456 614.214 180.795 614.797 183.332C615.174 184.863 615.374 186.532 615.398 188.337C615.4 188.458 615.4 188.579 615.4 188.7ZM543.3 194.9V197.9V201.1C543.3 205.433 543.067 208.6 542.6 210.6C541.667 214.533 539.583 217.717 536.35 220.15C533.825 222.034 530.85 223.223 527.722 223.6C526.687 223.736 525.644 223.802 524.6 223.8C522.703 223.814 520.812 223.583 518.974 223.111C516.794 222.547 514.747 221.558 512.95 220.2C509.783 217.8 507.7 214.6 506.7 210.6C506.367 209.133 506.15 207.483 506.05 205.65C505.973 204.247 505.926 202.384 505.908 200.062C505.903 199.308 505.9 198.554 505.9 197.8C505.9 195.401 505.929 193.374 505.988 191.717C506.004 191.245 506.025 190.772 506.05 190.3C506.15 188.433 506.367 186.767 506.7 185.3C507.633 181.3 509.7 178.1 512.9 175.7C515.331 173.896 518.181 172.739 521.182 172.339C522.314 172.177 523.456 172.097 524.6 172.1C526.637 172.084 528.667 172.354 530.629 172.902C532.71 173.493 534.666 174.458 536.4 175.75C539.667 178.183 541.733 181.367 542.6 185.3C542.955 186.819 543.175 189.032 543.26 191.937C543.288 192.925 543.301 193.912 543.3 194.9ZM560.7 222V154C560.7 153.471 560.91 153.152 561.33 153.043C561.451 153.013 561.575 152.999 561.7 153H562.7C563.229 153 563.549 153.21 563.658 153.63C563.688 153.751 563.702 153.875 563.7 154V222C563.7 222.529 563.49 222.849 563.07 222.958C562.949 222.988 562.825 223.002 562.7 223H561.7C561.171 223 560.852 222.79 560.743 222.37C560.713 222.249 560.699 222.125 560.7 222ZM524.6 221C526.249 221.013 527.893 220.804 529.486 220.378C531.384 219.865 533.158 218.971 534.7 217.75C537.433 215.583 539.167 212.733 539.9 209.2C539.96 208.846 540.006 208.491 540.036 208.133C540.198 206.39 540.285 203.359 540.298 199.041C540.299 198.661 540.3 198.28 540.3 197.9C540.3 196.845 540.296 195.789 540.286 194.734C540.246 190.55 540.119 187.881 539.905 186.728C539.903 186.719 539.902 186.709 539.9 186.7C539.167 183.167 537.417 180.317 534.65 178.15C532.469 176.457 529.866 175.391 527.124 175.067C526.254 174.954 525.377 174.898 524.5 174.9C522.868 174.887 521.242 175.093 519.664 175.511C517.762 176.021 515.987 176.919 514.45 178.15C511.75 180.317 510.067 183.167 509.4 186.7C509.067 188.5 508.9 192.233 508.9 197.9C508.9 202.871 509.022 206.348 509.267 208.331C509.302 208.622 509.346 208.912 509.4 209.2C510.067 212.733 511.75 215.583 514.45 217.75C516.42 219.313 518.761 220.339 521.245 220.729C522.354 220.914 523.476 221.004 524.6 221ZM483.5 221.9V173.8C483.5 173.271 483.71 172.952 484.13 172.843C484.251 172.813 484.375 172.799 484.5 172.8H485.5C486.029 172.8 486.349 173.01 486.458 173.43C486.488 173.551 486.502 173.675 486.5 173.8V221.9C486.5 222.429 486.29 222.749 485.87 222.858C485.749 222.888 485.625 222.902 485.5 222.9H484.5C483.971 222.9 483.652 222.69 483.543 222.27C483.513 222.149 483.499 222.025 483.5 221.9ZM413.4 208.5V197.6C413.401 197.547 413.394 197.494 413.38 197.442C413.346 197.323 413.269 197.248 413.148 197.217C413.1 197.205 413.05 197.199 413 197.2H400.5C395.3 197.2 391.1 198.317 387.9 200.55C386.481 201.51 385.302 202.784 384.455 204.273C383.65 205.722 383.204 207.368 383.116 209.212C383.105 209.441 383.1 209.671 383.1 209.9C383.089 211.058 383.232 212.212 383.527 213.332C384.037 215.291 385.19 217.023 386.8 218.25C388.252 219.35 389.918 220.135 391.69 220.555C392.942 220.867 394.302 221.045 395.771 221.089C396.014 221.096 396.257 221.1 396.5 221.1C401.033 221.1 404.983 220 408.35 217.8C409.636 216.985 410.748 215.922 411.62 214.673C412.691 213.103 413.278 211.274 413.383 209.187C413.394 208.958 413.4 208.729 413.4 208.5ZM612.4 208.5V197.6C612.401 197.547 612.394 197.494 612.38 197.442C612.346 197.323 612.269 197.248 612.148 197.217C612.1 197.205 612.05 197.199 612 197.2H599.5C594.3 197.2 590.1 198.317 586.9 200.55C585.481 201.51 584.302 202.784 583.455 204.273C582.65 205.722 582.204 207.368 582.116 209.212C582.105 209.441 582.1 209.671 582.1 209.9C582.089 211.058 582.232 212.212 582.527 213.332C583.037 215.291 584.19 217.023 585.8 218.25C587.252 219.35 588.918 220.135 590.69 220.555C591.942 220.867 593.302 221.045 594.771 221.089C595.014 221.096 595.257 221.1 595.5 221.1C600.033 221.1 603.983 220 607.35 217.8C608.636 216.985 609.748 215.922 610.62 214.673C611.691 213.103 612.278 211.274 612.383 209.187C612.394 208.958 612.4 208.729 612.4 208.5ZM483.847 161.494C484.318 161.635 484.808 161.705 485.3 161.7C486.5 161.7 487.517 161.3 488.35 160.5C488.822 160.053 489.175 159.496 489.378 158.879C489.53 158.401 489.605 157.902 489.6 157.4C489.6 157.362 489.6 157.323 489.599 157.285C489.6 156.749 489.495 156.218 489.289 155.722C489.083 155.227 488.781 154.778 488.4 154.4C487.942 153.938 487.376 153.596 486.754 153.406C486.282 153.265 485.792 153.195 485.3 153.2C485.103 153.2 484.906 153.21 484.71 153.231C483.762 153.314 482.873 153.727 482.2 154.4C481.793 154.802 481.477 155.286 481.273 155.821C481.087 156.326 480.994 156.862 481 157.4C481 157.598 481.01 157.795 481.031 157.991C481.114 158.939 481.528 159.827 482.2 160.5C482.659 160.962 483.224 161.304 483.847 161.494Z" fill="white" stroke="white" stroke-width="0.944882" stroke-linecap="round"/>
<path fill-rule="evenodd" clip-rule="evenodd" d="M659.6 80.9001H660.6C661.129 80.9001 661.449 81.1101 661.558 81.5301C661.588 81.6512 661.602 81.7755 661.6 81.9001V130C661.6 130.529 661.39 130.849 660.97 130.958C660.849 130.988 660.725 131.002 660.6 131H659.6C659.071 131 658.752 130.79 658.643 130.37C658.613 130.249 658.599 130.125 658.6 130V124.4C658.6 124.281 658.582 124.198 658.547 124.15C658.536 124.134 658.522 124.121 658.505 124.113C658.488 124.104 658.469 124.1 658.45 124.1C658.35 124.1 658.233 124.167 658.1 124.3C656.73 126.573 654.752 128.419 652.389 129.627C652.31 129.669 652.23 129.71 652.15 129.75C650.363 130.643 648.439 131.231 646.458 131.49C645.411 131.632 644.356 131.703 643.3 131.7C641.469 131.716 639.645 131.485 637.876 131.014C635.346 130.337 633.03 129.024 631.15 127.2C628.741 124.858 627.188 121.775 626.739 118.445C626.577 117.371 626.497 116.286 626.5 115.2V81.9001C626.5 81.3714 626.71 81.0524 627.13 80.9431C627.251 80.9132 627.375 80.8987 627.5 80.9001H628.5C629.029 80.9001 629.349 81.1101 629.458 81.5301C629.488 81.6512 629.502 81.7755 629.5 81.9001V114.6C629.487 116.121 629.672 117.637 630.049 119.11C630.617 121.339 631.774 123.373 633.4 125C635.414 127.003 638.024 128.296 640.837 128.686C641.784 128.832 642.742 128.903 643.7 128.9C648.233 128.9 651.85 127.583 654.55 124.95C656.768 122.783 658.155 119.906 658.469 116.821C658.558 116.084 658.601 115.342 658.6 114.6V81.9001C658.6 81.3714 658.81 81.0524 659.23 80.9431C659.351 80.9132 659.475 80.8987 659.6 80.9001ZM514.8 97.0001V130C514.8 130.529 514.59 130.849 514.17 130.958C514.049 130.988 513.925 131.002 513.8 131H512.8C512.271 131 511.952 130.79 511.843 130.37C511.813 130.249 511.799 130.125 511.8 130V97.5001C511.8 93.2334 510.467 89.7501 507.8 87.0501C505.406 84.6161 502.178 83.1818 498.767 83.0371C498.378 83.0122 497.989 82.9998 497.6 83.0001C493.133 83.0001 489.533 84.3168 486.8 86.9501C484.514 89.1528 483.098 92.1049 482.811 95.2661C482.736 95.9415 482.699 96.6206 482.7 97.3001V130C482.7 130.529 482.49 130.849 482.07 130.958C481.949 130.988 481.825 131.002 481.7 131H480.7C480.171 131 479.852 130.79 479.743 130.37C479.713 130.249 479.699 130.125 479.7 130V81.9001C479.7 81.3714 479.91 81.0524 480.33 80.9431C480.451 80.9132 480.575 80.8987 480.7 80.9001H481.7C482.229 80.9001 482.549 81.1101 482.658 81.5301C482.688 81.6512 482.702 81.7755 482.7 81.9001V87.5001C482.7 87.6401 482.724 87.7391 482.773 87.7971C482.793 87.8217 482.82 87.8401 482.85 87.8501C482.862 87.8543 482.874 87.8573 482.887 87.8591C482.971 87.8698 483.042 87.8168 483.1 87.7001C484.567 85.3001 486.567 83.4501 489.1 82.1501C490.73 81.3262 492.481 80.7647 494.286 80.4861C495.514 80.2913 496.756 80.1957 498 80.2001C499.935 80.1816 501.861 80.4554 503.714 81.0121C506.124 81.7519 508.316 83.0694 510.1 84.8501C513.233 87.9501 514.8 92.0001 514.8 97.0001ZM314 112V103.8C314 103.271 314.21 102.952 314.63 102.843C314.751 102.813 314.875 102.799 315 102.8H316C316.529 102.8 316.849 103.01 316.958 103.43C316.988 103.551 317.002 103.675 317 103.8V112.1C316.981 114.028 317.262 115.947 317.834 117.788C318.637 120.308 320.091 122.572 322.05 124.35C325.417 127.45 329.833 129 335.3 129C337.22 129.015 339.134 128.796 341 128.346C343.802 127.681 346.385 126.305 348.5 124.35C351.833 121.25 353.5 117.167 353.5 112.1V62.0001C353.5 61.4714 353.71 61.1524 354.13 61.0431C354.251 61.0132 354.375 60.9987 354.5 61.0001H355.5C356.029 61.0001 356.349 61.2101 356.458 61.6301C356.488 61.7512 356.502 61.8755 356.5 62.0001V112C356.513 113.926 356.276 115.846 355.796 117.712C355.366 119.357 354.711 120.934 353.85 122.4C352.083 125.4 349.6 127.717 346.4 129.35C344.219 130.447 341.872 131.178 339.454 131.511C338.078 131.707 336.69 131.804 335.3 131.8C331.1 131.8 327.383 130.983 324.15 129.35C320.917 127.717 318.417 125.4 316.65 122.4C314.883 119.4 314 115.933 314 112ZM716.5 94.8001V95.0001C716.505 95.1372 716.474 95.2732 716.409 95.3944C716.345 95.5155 716.249 95.6175 716.133 95.6901C716.038 95.7534 715.925 95.8061 715.793 95.8481C715.73 95.8684 715.665 95.8858 715.6 95.9001L714.6 96.0001H714.4C714.263 96.005 714.127 95.9737 714.006 95.9092C713.885 95.8448 713.783 95.7496 713.71 95.6331C713.647 95.5384 713.595 95.4251 713.552 95.2931C713.532 95.2296 713.514 95.1652 713.5 95.1001L713.2 93.7001C712.6 90.6334 710.917 88.0668 708.15 86.0001C706.089 84.4774 703.681 83.4917 701.143 83.1321C700.103 82.9746 699.052 82.8971 698 82.9001C696.402 82.8878 694.809 83.0787 693.259 83.4681C691.285 83.9651 689.441 84.8796 687.85 86.1501C685.15 88.3168 683.467 91.1668 682.8 94.7001C682.291 97.3721 682.025 100.894 682.002 105.267C682.001 105.478 682 105.689 682 105.9C682 110.633 682.267 114.4 682.8 117.2C683.141 118.96 683.786 120.646 684.706 122.184C685.55 123.568 686.631 124.792 687.9 125.8C689.776 127.283 691.994 128.273 694.35 128.68C695.554 128.899 696.776 129.006 698 129C699.794 129.014 701.581 128.775 703.309 128.29C705.045 127.794 706.683 127.003 708.15 125.95C710.983 123.917 712.7 121.367 713.3 118.3V117.9L713.4 117.7C713.399 117.603 713.409 117.507 713.429 117.412C713.458 117.283 713.507 117.172 713.578 117.079C713.614 117.031 713.654 116.988 713.7 116.95C713.877 116.803 714.106 116.747 714.387 116.782C714.425 116.787 714.463 116.793 714.5 116.8L715.4 116.9C715.529 116.925 715.656 116.964 715.776 117.017C716.166 117.195 716.342 117.509 716.304 117.96C716.303 117.973 716.301 117.987 716.3 118C716.277 118.046 716.26 118.095 716.247 118.145C716.216 118.265 716.2 118.417 716.2 118.6C716.2 118.779 716.17 118.989 716.11 119.228C716.078 119.353 716.041 119.478 716 119.6C715.387 122.537 713.803 125.182 711.504 127.11C710.993 127.553 710.457 127.967 709.9 128.35C707.3 130.125 704.308 131.242 701.181 131.604C700.126 131.737 699.063 131.802 698 131.8C696.062 131.815 694.13 131.567 692.259 131.061C690.158 130.486 688.186 129.515 686.45 128.2C683.283 125.8 681.2 122.6 680.2 118.6C679.491 115.999 679.096 112.348 679.015 107.648C679.005 107.032 679 106.416 679 105.8C678.997 104.29 679.037 102.779 679.117 101.271C679.203 99.7138 679.336 98.2711 679.517 96.9431C679.678 95.7172 679.906 94.501 680.2 93.3001C681.2 89.3001 683.267 86.1001 686.4 83.7001C689.533 81.3001 693.4 80.1001 698 80.1001C700.112 80.0837 702.215 80.3692 704.246 80.9481C706.215 81.5196 708.076 82.4159 709.75 83.6001C711.117 84.5492 712.341 85.6903 713.383 86.9881C714.626 88.5507 715.519 90.3623 716 92.3001C716.087 92.6224 716.167 92.9465 716.24 93.2721C716.37 93.8534 716.457 94.3628 716.5 94.8001ZM462.2 96.7001V130C462.2 130.529 461.99 130.849 461.57 130.958C461.449 130.988 461.325 131.002 461.2 131H460.2C459.671 131 459.352 130.79 459.243 130.37C459.213 130.249 459.199 130.125 459.2 130V124.8C459.2 124.667 459.15 124.567 459.05 124.5C458.95 124.433 458.833 124.467 458.7 124.6C457.311 126.525 455.492 128.099 453.387 129.196C452.87 129.472 452.34 129.723 451.8 129.95C449.271 131.001 446.58 131.611 443.845 131.753C443.297 131.785 442.749 131.8 442.2 131.8C440.328 131.813 438.462 131.598 436.643 131.159C434.494 130.639 432.461 129.72 430.65 128.45C428.349 126.828 426.772 124.371 426.255 121.603C426.01 120.418 425.891 119.21 425.9 118C425.878 116.179 426.183 114.368 426.8 112.654C427.705 110.255 429.286 108.17 431.35 106.65C433.16 105.3 435.2 104.291 437.371 103.671C439.09 103.159 440.977 102.815 443.032 102.639C444.152 102.545 445.276 102.498 446.4 102.5H458.8C458.853 102.501 458.907 102.494 458.958 102.48C459.077 102.446 459.152 102.369 459.183 102.248C459.195 102.2 459.201 102.15 459.2 102.1V96.5001C459.2 92.3668 458.067 89.0668 455.8 86.6001C453.974 84.6128 451.304 83.4261 447.791 83.0401C446.897 82.9444 445.999 82.8977 445.1 82.9001C443.73 82.8924 442.363 83.0098 441.015 83.2511C439.427 83.5451 437.991 84.0231 436.708 84.6851C436.399 84.8446 436.096 85.0164 435.8 85.2001C434.761 85.8307 433.841 86.6382 433.08 87.5861C432.183 88.7301 431.573 90.0721 431.3 91.5001C431.113 92.1234 430.752 92.3971 430.215 92.3211C430.176 92.3156 430.138 92.3086 430.1 92.3001L429.1 92.1001C428.433 91.9668 428.133 91.6668 428.2 91.2001C428.801 88.158 430.543 85.4614 433.07 83.6641C433.309 83.4861 433.552 83.3147 433.8 83.1501C435.653 81.9417 437.716 81.0917 439.882 80.6441C441.551 80.2814 443.357 80.1001 445.3 80.1001C449.151 80.1001 452.339 80.7851 454.866 82.1551C456.032 82.7811 457.09 83.5896 458 84.5501C459.773 86.4561 461.014 88.7951 461.597 91.3321C461.974 92.8634 462.174 94.5318 462.198 96.3371C462.199 96.4581 462.2 96.5791 462.2 96.7001ZM410.4 119.2L411.2 119.4C411.31 119.432 411.416 119.475 411.518 119.528C411.929 119.747 412.06 120.096 411.909 120.574C411.906 120.583 411.903 120.591 411.9 120.6C410.633 124 408.45 126.717 405.35 128.75C402.25 130.783 398.567 131.8 394.3 131.8C392.433 131.814 390.571 131.586 388.763 131.121C386.621 130.566 384.611 129.59 382.85 128.25C379.75 125.883 377.667 122.733 376.6 118.8C376.348 117.823 376.16 116.831 376.036 115.83C375.949 115.139 375.887 114.445 375.85 113.75C375.773 112.347 375.726 110.464 375.708 108.103C375.702 107.335 375.7 106.568 375.7 105.8C375.7 102.667 375.75 100.183 375.85 98.3501C375.95 96.5168 376.167 94.8668 376.5 93.4001C377.433 89.4001 379.483 86.1834 382.65 83.7501C385.817 81.3168 389.7 80.1001 394.3 80.1001C396.206 80.086 398.107 80.3104 399.957 80.7681C402.278 81.343 404.455 82.3924 406.35 83.8501C409.583 86.3501 411.6 89.7001 412.4 93.9001C412.629 94.9868 412.784 96.2451 412.866 97.6751C412.88 97.9166 412.891 98.1583 412.9 98.4001C412.951 99.7274 412.983 101.426 412.995 103.495C412.999 104.163 413 104.832 413 105.5C413.002 105.642 412.986 105.784 412.954 105.922C412.863 106.289 412.636 106.507 412.274 106.576C412.184 106.593 412.092 106.601 412 106.6H379.1C379.047 106.599 378.993 106.606 378.942 106.62C378.823 106.654 378.748 106.731 378.717 106.852C378.705 106.901 378.699 106.95 378.7 107C378.7 109.179 378.729 111.139 378.787 112.882C378.791 113.005 378.795 113.127 378.8 113.25C378.851 114.632 378.939 115.721 379.065 116.516C379.1 116.746 379.145 116.974 379.2 117.2C379.867 120.733 381.55 123.583 384.25 125.75C386.22 127.313 388.561 128.339 391.045 128.729C392.154 128.914 393.276 129.004 394.4 129C397.933 129 401 128.183 403.6 126.55C406.2 124.917 408.067 122.7 409.2 119.9C409.4 119.3 409.8 119.067 410.4 119.2ZM572.5 130V62.0001C572.5 61.4714 572.71 61.1524 573.13 61.0431C573.251 61.0132 573.375 60.9987 573.5 61.0001H574.5C575.029 61.0001 575.349 61.2101 575.458 61.6301C575.488 61.7512 575.502 61.8755 575.5 62.0001V127.8C575.499 127.853 575.506 127.907 575.52 127.958C575.554 128.077 575.631 128.152 575.752 128.183C575.8 128.195 575.85 128.201 575.9 128.2H612.6C613.129 128.2 613.449 128.41 613.558 128.83C613.588 128.951 613.602 129.075 613.6 129.2V130C613.6 130.529 613.39 130.849 612.97 130.958C612.849 130.988 612.725 131.002 612.6 131H573.5C572.971 131 572.652 130.79 572.543 130.37C572.513 130.249 572.499 130.125 572.5 130ZM459.2 116.5V105.6C459.201 105.547 459.194 105.494 459.18 105.442C459.146 105.323 459.069 105.248 458.948 105.217C458.9 105.205 458.85 105.199 458.8 105.2H446.3C441.1 105.2 436.9 106.317 433.7 108.55C432.281 109.51 431.102 110.784 430.255 112.273C429.45 113.722 429.004 115.368 428.916 117.212C428.905 117.441 428.9 117.671 428.9 117.9C428.889 119.058 429.032 120.212 429.327 121.332C429.837 123.291 430.99 125.023 432.6 126.25C434.052 127.35 435.718 128.135 437.49 128.555C438.742 128.867 440.102 129.045 441.571 129.089C441.814 129.096 442.057 129.1 442.3 129.1C446.833 129.1 450.783 128 454.15 125.8C455.436 124.985 456.548 123.922 457.42 122.673C458.491 121.103 459.078 119.274 459.183 117.187C459.194 116.958 459.2 116.729 459.2 116.5ZM379.1 104H409.6C409.653 104.001 409.707 103.994 409.758 103.98C409.877 103.946 409.952 103.869 409.983 103.748C409.995 103.7 410.001 103.65 410 103.6C410 99.7021 409.877 96.9624 409.631 95.3811C409.596 95.1525 409.553 94.9253 409.5 94.7001C408.767 91.1668 407.05 88.3168 404.35 86.1501C402.302 84.5229 399.855 83.4751 397.264 83.1161C396.283 82.9694 395.292 82.8972 394.3 82.9001C392.668 82.887 391.042 83.0925 389.464 83.5111C387.562 84.0205 385.787 84.9191 384.25 86.1501C381.55 88.3168 379.867 91.1334 379.2 94.6001C378.925 95.8094 378.764 98.0611 378.716 101.355C378.705 102.103 378.7 102.852 378.7 103.6C378.699 103.653 378.706 103.707 378.72 103.758C378.754 103.877 378.831 103.952 378.952 103.983C379 103.995 379.05 104.001 379.1 104ZM527.1 99.4001V98.6001C527.1 98.0714 527.31 97.7524 527.73 97.6431C527.851 97.6132 527.975 97.5987 528.1 97.6001H555.7C556.229 97.6001 556.549 97.8101 556.658 98.2301C556.688 98.3512 556.702 98.4755 556.7 98.6001V99.4001C556.7 99.9294 556.49 100.249 556.07 100.358C555.949 100.388 555.825 100.402 555.7 100.4H528.1C527.571 100.4 527.252 100.19 527.143 99.7701C527.113 99.6491 527.099 99.5247 527.1 99.4001Z" fill="white" stroke="white" stroke-width="0.944882" stroke-linecap="round"/>
</svg>
