<svg width="41" height="41" viewBox="0 0 41 41" fill="none" xmlns="http://www.w3.org/2000/svg">
<rect width="41" height="41" fill="black"/>
<path d="M13 27C12.9086 27 12.8229 27.0245 12.7491 27.0674C11.9481 25.3798 11.5 23.4922 11.5 21.5C11.5 18.9227 12.25 16.5206 13.5436 14.5H28C28.2761 14.5 28.5 14.2761 28.5 14C28.5 13.7239 28.2761 13.5 28 13.5H14.2523C16.6317 10.4565 20.3374 8.5 24.5 8.5C27.0482 8.5 29.4251 9.23314 31.4314 10.5H25.5C25.2239 10.5 25 10.7239 25 11C25 11.2761 25.2239 11.5 25.5 11.5H32.5C32.5852 11.5 32.6655 11.4787 32.7357 11.441C34.9035 13.2179 36.4864 15.6818 37.1521 18.5H30C29.7239 18.5 29.5 18.7239 29.5 19C29.5 19.2761 29.7239 19.5 30 19.5H37.3471C37.4478 20.1519 37.5 20.8199 37.5 21.5C37.5 23.7545 36.9261 25.8749 35.9165 27.7232C35.8269 27.5887 35.6738 27.5 35.5 27.5H28.5C28.2239 27.5 28 27.7239 28 28C28 28.2761 28.2239 28.5 28.5 28.5H35.4564C34.7723 29.5685 33.9362 30.5303 32.9786 31.3549C32.9164 31.1495 32.7257 31 32.5 31H25.5C25.2239 31 25 31.2239 25 31.5C25 31.7761 25.2239 32 25.5 32H32.1664C30.017 33.572 27.3669 34.5 24.5 34.5C19.6882 34.5 15.4869 31.8857 13.2392 28H23C23.2761 28 23.5 27.7761 23.5 27.5C23.5 27.2239 23.2761 27 23 27H13ZM20 29.5C19.7239 29.5 19.5 29.7239 19.5 30C19.5 30.2761 19.7239 30.5 20 30.5H22.5H23.5C23.7761 30.5 24 30.2761 24 30C24 29.7239 23.7761 29.5 23.5 29.5H22.5H20ZM23.5 23C23.2239 23 23 23.2239 23 23.5C23 23.7761 23.2239 24 23.5 24H33C33.2761 24 33.5 23.7761 33.5 23.5C33.5 23.2239 33.2761 23 33 23H23.5ZM14 19.5C13.7239 19.5 13.5 19.7239 13.5 20C13.5 20.2761 13.7239 20.5 14 20.5H23C23.2761 20.5 23.5 20.2761 23.5 20C23.5 19.7239 23.2761 19.5 23 19.5H14ZM26 16.5C25.7239 16.5 25.5 16.7239 25.5 17C25.5 17.2761 25.7239 17.5 26 17.5H32C32.2761 17.5 32.5 17.2761 32.5 17C32.5 16.7239 32.2761 16.5 32 16.5H26ZM14 24.5C13.7239 24.5 13.5 24.7239 13.5 25C13.5 25.2761 13.7239 25.5 14 25.5H18C18.2761 25.5 18.5 25.2761 18.5 25C18.5 24.7239 18.2761 24.5 18 24.5H14ZM17 21.5C16.7239 21.5 16.5 21.7239 16.5 22C16.5 22.2761 16.7239 22.5 17 22.5H19C19.2761 22.5 19.5 22.2761 19.5 22C19.5 21.7239 19.2761 21.5 19 21.5H17ZM15 15C14.7239 15 14.5 15.2239 14.5 15.5C14.5 15.7761 14.7239 16 15 16H18C18.2761 16 18.5 15.7761 18.5 15.5C18.5 15.2239 18.2761 15 18 15H15Z" fill="white" stroke="#212229" stroke-linecap="round"/>
<circle cx="33.5" cy="31.5" r="2" fill="white" stroke="#212229"/>
<circle cx="35" cy="13" r="2.5" fill="white" stroke="#212229"/>
<g filter="url(#filter0_f_109_32)">
<path d="M11 8V13M9 10.5H13" stroke="#807E71"/>
</g>
<g filter="url(#filter1_d_109_32)">
<path d="M18.682 23.4493L16.3519 21.8936C15.9229 21.6072 15.8068 21.028 16.0926 20.6L18.9378 16.3385C18.9977 16.2488 18.88 16.1185 18.78 16.1589C18.4981 16.2728 18.1362 16.3621 17.9031 16.2064C17.6699 16.0508 17.6136 15.6823 17.6108 15.3782C17.6098 15.2704 17.4443 15.2117 17.3844 15.3014L15.0566 18.7879C14.9207 18.9914 14.746 19.1662 14.5424 19.3021C14.3387 19.438 14.1102 19.5325 13.8699 19.5802C13.6296 19.6278 13.3821 19.6276 13.1416 19.5797C12.9011 19.5318 12.6724 19.437 12.4684 19.3008C12.2644 19.1646 12.0892 18.9896 11.9527 18.7859C11.8162 18.5822 11.7212 18.3537 11.6731 18.1134C11.6249 17.8732 11.6246 17.6259 11.6721 17.3858C11.7196 17.1456 11.8139 16.9172 11.9498 16.7137L19.0509 6.07766C19.0993 6.00517 19.2121 6.033 19.2214 6.11973L19.8447 11.9159C19.9114 12.536 20.5232 12.9444 21.1214 12.7683L26.7137 11.122C26.7974 11.0973 26.8663 11.1908 26.8179 11.2633L19.7168 21.8993" stroke="#FF0000" stroke-linecap="round"/>
<path d="M11.7513 22.3226L8.60216 27.0394M9.18251 21.7441L7.60794 24.1025M14.5918 24.2646L10.7709 29.9876M15.3347 26.6927L14.18 28.4222M6.13893 25.4176L6.41066 26.781M6.95651 25.9634L5.59308 26.2352M9.67976 30.7366L9.95149 32.1001M10.4973 31.2825L9.13391 31.5542M7.09117 28.4174C7.2419 28.1916 7.54712 28.1308 7.77288 28.2815C7.99865 28.4322 8.05948 28.7374 7.90875 28.9632C7.75801 29.189 7.4528 29.2498 7.22703 29.0991C7.00126 28.9483 6.94044 28.6431 7.09117 28.4174ZM12.816 29.58C12.9667 29.3542 13.272 29.2934 13.4977 29.4441C13.7235 29.5949 13.7843 29.9001 13.6336 30.1259C13.4829 30.3516 13.1776 30.4125 12.9519 30.2617C12.7261 30.111 12.6653 29.8058 12.816 29.58Z" stroke="#FFB800" stroke-width="0.5" stroke-linecap="round"/>
<path d="M13.7068 22.4917L6.88362 32.7114" stroke="#2D2D30" stroke-width="0.75" stroke-linecap="round"/>
</g>
<defs>
<filter id="filter0_f_109_32" x="7.5" y="6.5" width="7" height="8" filterUnits="userSpaceOnUse" color-interpolation-filters="sRGB">
<feFlood flood-opacity="0" result="BackgroundImageFix"/>
<feBlend mode="normal" in="SourceGraphic" in2="BackgroundImageFix" result="shape"/>
<feGaussianBlur stdDeviation="0.75" result="effect1_foregroundBlur_109_32"/>
</filter>
<filter id="filter1_d_109_32" x="4.34302" y="5.53564" width="23.9932" height="30.5508" filterUnits="userSpaceOnUse" color-interpolation-filters="sRGB">
<feFlood flood-opacity="0" result="BackgroundImageFix"/>
<feColorMatrix in="SourceAlpha" type="matrix" values="0 0 0 0 0 0 0 0 0 0 0 0 0 0 0 0 0 0 127 0" result="hardAlpha"/>
<feOffset dy="2"/>
<feGaussianBlur stdDeviation="0.5"/>
<feComposite in2="hardAlpha" operator="out"/>
<feColorMatrix type="matrix" values="0 0 0 0 0 0 0 0 0 0 0 0 0 0 0 0 0 0 0.25 0"/>
<feBlend mode="normal" in2="BackgroundImageFix" result="effect1_dropShadow_109_32"/>
<feBlend mode="normal" in="SourceGraphic" in2="effect1_dropShadow_109_32" result="shape"/>
</filter>
</defs>
</svg>
